<svg width="3163" height="780" viewBox="0 0 3163 780" fill="none" xmlns="http://www.w3.org/2000/svg">
<path d="M526.759 423.915H183.944V183.944H526.759V81.1001H81.0996V132.522V183.944V423.915V475.337V526.759H526.759V423.915Z" fill="#34977A"/>
<path d="M252.508 252.507V355.352H595.322V595.322H252.508V698.166H698.167V663.885V595.322V355.352V321.07V252.507H252.508Z" fill="#34977A"/>
<path d="M890.468 203.561H998.568C1014.78 203.561 1014.78 265.177 998.568 265.177H921.277V363.548H975.326C991.541 363.548 991.541 425.705 975.326 425.705H921.277V570.017C921.277 586.232 859.66 586.232 859.66 570.017V233.288C859.66 203.561 859.66 203.561 890.468 203.561ZM1286.65 215.452V447.865C1286.65 626.229 1075.86 627.31 1075.86 447.324V214.911C1075.86 198.696 1137.48 198.696 1137.48 214.911V447.324C1137.48 546.235 1225.04 546.776 1225.04 447.865V215.452C1225.04 199.237 1286.65 199.237 1286.65 215.452ZM1352.59 203.561H1567.71C1583.92 203.561 1583.92 264.096 1567.71 264.096L1490.96 265.177V570.017C1490.96 586.232 1429.34 586.232 1429.34 570.017V265.177L1352.59 264.096C1336.38 264.096 1336.38 203.561 1352.59 203.561ZM1844.98 215.452V447.865C1844.98 626.229 1634.19 627.31 1634.19 447.324V214.911C1634.19 198.696 1695.81 198.696 1695.81 214.911V447.324C1695.81 546.235 1783.37 546.776 1783.37 447.865V215.452C1783.37 199.237 1844.98 199.237 1844.98 215.452ZM2123.34 551.1C2134.69 578.125 2074.15 591.096 2067.13 574.882L2063.89 567.315C2046.05 524.615 2026.59 475.971 2008.75 432.731H1982.27V570.017C1982.27 586.232 1920.65 586.232 1920.65 570.017V237.612C1920.65 212.209 1921.19 204.101 1959.03 203.561H2014.7C2034.16 203.561 2055.78 204.101 2072.53 214.911C2109.29 238.152 2120.64 279.23 2120.1 320.848C2119.56 355.44 2114.69 390.032 2080.64 415.435C2076.86 417.597 2073.61 419.759 2070.37 421.921C2087.67 462.999 2106.58 510.022 2123.34 551.1ZM1982.27 371.115H2028.75C2053.62 371.115 2057.4 340.847 2058.48 332.199C2059.02 326.253 2059.02 304.633 2057.94 294.364C2055.78 274.366 2048.21 264.096 2023.35 264.096H1982.27V371.115ZM2262.25 520.291H2339.54C2355.75 520.291 2355.75 581.908 2339.54 581.908H2235.22C2200.63 581.908 2200.63 581.908 2200.63 552.721V232.748C2200.63 203.561 2200.63 203.561 2233.6 203.02L2339 203.561C2355.21 203.561 2355.21 265.177 2339 265.177H2262.25V363.548H2316.3C2332.51 363.548 2332.51 425.705 2316.3 425.705H2262.25V520.291ZM2597.9 485.159C2598.98 503.536 2594.11 524.075 2583.84 539.209C2578.98 546.235 2573.57 553.262 2566.55 559.207C2562.22 562.45 2557.9 566.234 2553.03 568.936C2548.17 571.639 2542.76 573.801 2537.9 575.963C2521.69 582.989 2502.23 583.529 2485.47 579.205C2476.82 577.043 2468.72 573.801 2461.15 568.936C2454.12 564.612 2446.56 559.207 2441.15 552.721C2435.21 546.235 2429.8 539.209 2426.02 531.101C2423.86 526.237 2421.15 520.832 2419.53 515.427C2418.45 510.022 2416.83 495.969 2416.83 490.564C2416.83 474.349 2477.36 474.349 2477.36 490.564C2477.36 504.077 2498.44 540.29 2530.87 507.86C2544.39 488.402 2531.95 466.242 2520.06 450.027C2501.69 427.326 2477.91 410.03 2458.45 388.41C2447.1 375.979 2435.75 361.926 2428.72 346.252C2424.94 337.604 2421.69 328.956 2419.53 319.227C2411.42 274.366 2425.48 194.372 2523.31 203.561C2572.49 208.425 2594.11 250.584 2594.11 279.23C2594.11 295.445 2532.5 295.445 2532.5 279.23C2532.5 257.61 2471.42 254.908 2478.99 302.472C2480.07 307.336 2481.15 312.2 2483.31 317.065C2486.55 324.091 2490.34 330.037 2494.66 335.982C2500.07 343.009 2505.47 348.954 2511.96 354.9C2535.74 378.141 2562.76 399.22 2580.06 428.948C2590.33 446.243 2596.27 465.161 2597.9 485.159ZM2724.37 520.291H2801.66C2817.88 520.291 2817.88 581.908 2801.66 581.908H2697.35C2662.76 581.908 2662.76 581.908 2662.76 552.721V232.748C2662.76 203.561 2662.75 203.561 2695.73 203.02L2801.12 203.561C2817.34 203.561 2817.34 265.177 2801.12 265.177H2724.37V363.548H2778.42C2794.64 363.548 2794.64 425.705 2778.42 425.705H2724.37V520.291ZM3021.1 479.214C3021.1 462.999 3081.1 462.999 3081.1 479.214C3081.1 539.749 3049.75 581.908 2992.46 581.908C2932.46 581.908 2891.38 544.614 2889.76 487.321V486.24V299.769V298.688C2891.38 240.855 2934.62 202.48 2992.46 203.561C3052.99 204.642 3081.1 246.8 3081.1 306.795C3081.1 323.01 3021.1 323.01 3021.1 306.795C3021.1 300.85 3021.1 295.986 3020.02 290.581C3016.78 258.691 2978.4 264.637 2970.3 268.961C2954.62 276.528 2951.38 295.445 2951.38 308.417V477.592C2951.92 490.564 2954.62 509.482 2970.3 517.048C2978.4 521.372 3016.78 527.318 3020.02 495.969C3021.1 490.564 3021.1 485.159 3021.1 479.214Z" fill="#3BBB96"/>
</svg>
